<?xml version="1.0" encoding="UTF-8" standalone="no"?>
<!-- Created with Inkscape (http://www.inkscape.org/) -->

<svg
   width="300"
   height="49.999996"
   viewBox="0 0 79.374998 13.229165"
   version="1.1"
   id="svg1"
   inkscape:version="1.4.2 (ebf0e940d0, 2025-05-08)"
   xml:space="preserve"
   inkscape:export-filename="bundes.png"
   inkscape:export-xdpi="96"
   inkscape:export-ydpi="96"
   sodipodi:docname="bundes.svg"
   xmlns:inkscape="http://www.inkscape.org/namespaces/inkscape"
   xmlns:sodipodi="http://sodipodi.sourceforge.net/DTD/sodipodi-0.dtd"
   xmlns="http://www.w3.org/2000/svg"
   xmlns:svg="http://www.w3.org/2000/svg"
   xmlns:rdf="http://www.w3.org/1999/02/22-rdf-syntax-ns#"
   xmlns:cc="http://creativecommons.org/ns#"><sodipodi:namedview
     id="namedview1"
     pagecolor="#ffffff"
     bordercolor="#89dceb"
     borderopacity="1"
     inkscape:showpageshadow="0"
     inkscape:pageopacity="0"
     inkscape:pagecheckerboard="false"
     inkscape:deskcolor="#dfe0e6"
     inkscape:document-units="px"
     showguides="true"
     inkscape:lockguides="false"
     showborder="false"
     borderlayer="true"
     showgrid="false"><inkscape:page
       x="0"
       y="0"
       width="79.375"
       height="13.229165"
       id="page1"
       margin="0"
       bleed="0" /></sodipodi:namedview><defs
     id="defs1" /><g
     inkscape:label="Warstwa 1"
     inkscape:groupmode="layer"
     id="layer1"
     transform="translate(-9.8308658,-40.403836)"><g
       id="g2"><rect
         style="fill:#1e1e2e;stroke-width:0.458563;stroke-linecap:round;stroke-linejoin:round;stroke-miterlimit:4.5"
         id="rect1"
         width="79.375"
         height="13.229166"
         x="9.8308659"
         y="40.403835" /><path
         id="path9"
         d="m 35.022737,48.303139 c 0,0.990354 -0.46271,1.518001 -1.716886,1.518001 h -2.879738 v -5.576825 h 2.770155 c 1.294763,0 1.741235,0.511411 1.741235,1.453057 0,0.718411 -0.271944,1.047168 -1.039059,1.237951 l -0.144089,0.04063 0.127873,0.02435 c 0.87265,0.196849 1.140532,0.517499 1.140532,1.302875 z m -3.275473,-1.725 h 1.166912 c 0.46271,0 0.671737,-0.202954 0.671737,-0.679854 0,-0.476918 -0.190764,-0.702174 -0.671737,-0.702174 h -1.162855 l -0.0042,1.382028 z m 1.925912,1.589029 c 0,-0.511412 -0.202943,-0.726539 -0.679855,-0.726539 h -1.242 v 1.438866 h 1.242 c 0.499236,-0.0039 0.683915,-0.211063 0.683915,-0.714349 l -0.0042,0.0021 z m 2.256711,-0.160399 v -3.762522 h 1.390149 v 3.713814 c 0,0.608827 0.280054,0.846274 1.030942,0.846274 0.750881,0 1.030942,-0.231362 1.030942,-0.846274 v -3.713814 h 1.390147 v 3.754414 c 0,1.310981 -0.759001,1.909677 -2.421089,1.909677 -1.662091,0 -2.417032,-0.590569 -2.417032,-1.903592 l -0.0042,0.0021 z m 11.364721,-3.754407 v 5.56872 H 45.60207 l -2.368325,-4.028397 v 4.026355 h -1.292734 v -5.574786 h 1.692529 l 2.364263,4.026337 v -4.026337 l 1.296805,0.0078 z m 1.144583,0 h 2.484007 c 1.94824,0 2.459651,0.799592 2.459651,2.780296 0,1.925914 -0.560118,2.788424 -2.459651,2.788424 h -2.486035 l 0.0022,-5.56872 z m 2.4353,4.505296 c 0.811767,0 1.077619,-0.424147 1.077619,-1.725 0,-1.300851 -0.263831,-1.716872 -1.077619,-1.716872 h -1.055299 v 3.45 l 1.055299,-0.0078 z M 54.39349,44.244254 H 58.292 v 1.063404 h -2.508361 v 1.168946 h 2.084216 v 1.047187 h -2.084216 v 1.217631 h 2.565182 v 1.063423 H 54.39349 Z m 4.779276,5.357636 v -1.095874 c 0.59925,0.203565 1.228086,0.306434 1.860964,0.304413 0.639268,0 0.91933,-0.168435 0.91933,-0.608825 0,-0.375442 -0.119743,-0.48707 -0.631147,-0.590569 l -0.92745,-0.190823 c -0.965992,-0.202934 -1.286647,-0.590548 -1.286647,-1.542364 0,-1.217632 0.718417,-1.749344 2.165391,-1.749344 0.604681,-0.0059 1.205423,0.09777 1.773704,0.304414 v 1.085724 c -0.543221,-0.194356 -1.115606,-0.294459 -1.692533,-0.296284 -0.687967,0 -0.919313,0.184737 -0.919313,0.608825 0,0.359206 0.160307,0.462707 0.608816,0.560119 l 0.903094,0.190822 c 1.047179,0.223235 1.333317,0.574333 1.333317,1.572796 0,1.191264 -0.734642,1.733125 -2.232357,1.733125 -0.636829,0.01169 -1.271105,-0.08422 -1.875169,-0.286155 z m 5.073527,-5.357636 h 1.39015 v 4.505296 h 2.388618 v 1.063404 h -3.778768 z m 4.647369,0 h 1.390147 v 5.5687 h -1.390147 z m 7.145555,2.348021 v 3.027892 c -0.622878,0.196477 -1.272806,0.293734 -1.925915,0.288178 -1.934036,0 -2.841179,-0.854381 -2.841179,-2.883795 0,-2.029412 0.911209,-2.883796 2.841179,-2.883796 0.626245,-0.0099 1.248962,0.09579 1.836616,0.312522 v 1.077637 c -0.555547,-0.190037 -1.137883,-0.290043 -1.725003,-0.296305 -1.166904,0 -1.534223,0.470832 -1.534223,1.789942 0,1.373923 0.383555,1.826477 1.485526,1.826477 0.242999,2.36e-4 0.485734,-0.01574 0.72653,-0.0487 v -1.246031 h -1.030935 v -0.957901 l 2.167404,-0.0059 z m 4.539798,2.053775 h -2.175518 l -0.391677,1.166904 h -1.386106 l 1.98883,-5.5687 h 1.7737 l 1.980716,5.5687 h -1.398269 z m -1.077613,-3.523068 -0.811767,2.51648 h 1.605261 z"
         style="fill:#ffffff;fill-opacity:1;stroke-width:1.92089" /><g
         id="g1"
         transform="matrix(0.20405192,0,0,0.20405192,-0.75487735,18.06496)"><rect
           style="fill:#d20515;stroke-width:2.4053"
           id="rect11"
           height="51.865883"
           width="64.831078"
           class="st1"
           y="115.95966"
           x="72.624046"
           ry="5.3651609" /><path
           style="fill:#ffffff;stroke-width:2.4053"
           id="path13"
           d="m 126.0712,143.26231 c 0.0356,0.12959 -0.0788,0.21854 -0.31258,0.3888 l -0.14232,0.0788 0.0483,0.094 c 0.033,0.061 -0.0228,0.15247 -0.12197,0.20074 l -0.21347,0.10673 c -0.0966,0.0508 -0.20333,0.0407 -0.2338,-0.0205 l -0.0457,-0.0864 -0.26935,0.13215 0.0432,0.0915 c 0.0305,0.061 -0.0279,0.15248 -0.12959,0.19822 l -0.21602,0.10165 c -0.0991,0.0457 -0.2033,0.0331 -0.2338,-0.0305 l -0.0381,-0.0813 c -0.83097,0.39134 -1.76106,0.80556 -2.71909,1.25027 l 0.0534,0.12197 c 0.033,0.061 -0.028,0.14992 -0.12452,0.19567 l -0.21854,0.10165 c -0.0991,0.0457 -0.20585,0.0305 -0.23127,-0.0305 l -0.0584,-0.12197 -0.30749,0.14992 0.0584,0.12452 c 0.028,0.0635 -0.0279,0.14992 -0.1296,0.19822 l -0.216,0.0991 c -0.10165,0.0457 -0.20329,0.0331 -0.23377,-0.028 l -0.0559,-0.11945 c -0.43455,0.1728 -0.90975,0.25412 -1.25536,-0.39897 -0.14739,-0.29986 -0.15502,-0.98852 -0.26935,-1.35446 -0.0475,-0.11846 -0.15356,-0.20332 -0.27954,-0.22362 -4.22348,-0.81064 -5.65417,0.0915 -8.36056,-0.57685 -0.8513,-0.20837 -1.31379,-0.99107 -2.36331,-1.00377 -2.28708,-0.0686 -2.9605,-0.0356 -5.44071,-0.1296 -0.10672,0.35831 -0.11945,0.43708 -0.11945,0.43708 l -8.71631,-0.0407 1.331585,0.6531 0.426927,3.84483 c 0,0 -0.353231,0.10165 -0.454877,0.11435 0.08387,0.76236 0.165173,1.80425 0.208372,2.73941 0.03812,0.83859 0.08132,1.71277 0.0737,2.26929 0.0026,0.36214 -0.08471,0.71927 -0.254125,1.03935 -0.166014,0.27917 -0.388454,0.52065 -0.653085,0.70899 -0.07877,0.0584 -0.41675,0.28716 -0.805563,0.50824 -0.388802,0.2211 -0.856376,0.4752 -1.092712,0.58702 0.0356,0.10232 0.07716,0.20243 0.124523,0.29986 -5.288237,2.56155 -11.85978,3.43571 -13.98677,7.50671 -0.254115,0.47267 -1.110502,0.22617 -1.135909,-0.28207 0,-0.23377 0,-0.61243 0,-0.82335 h -0.07625 c -0.06862,0 -0.121973,-0.094 -0.116898,-0.20582 v -0.23887 c 0,-0.10927 0.06607,-0.19567 0.132147,-0.19315 h 0.09147 c 0.02696,-0.23521 0.07199,-0.46798 0.134697,-0.69628 l -0.08132,-0.028 c -0.06352,-0.0228 -0.08385,-0.12707 -0.04828,-0.23124 l 0.07877,-0.22363 c 0.03812,-0.10419 0.116898,-0.16772 0.185497,-0.14739 l 0.07877,0.028 c 0.378638,-0.8818 1.107962,-1.2706 1.448483,-2.10665 l -0.05337,-0.0204 c -0.06862,-0.0254 -0.08895,-0.12704 -0.05082,-0.23124 l 0.07877,-0.22617 c 0.03812,-0.1042 0.119447,-0.16772 0.185497,-0.14485 l 0.05845,0.0204 c 0.05083,-0.12198 0.109273,-0.25412 0.175347,-0.38881 l -0.07115,-0.0483 c -0.061,-0.0381 -0.061,-0.1423 0,-0.23632 l 0.129598,-0.20075 c 0.0559,-0.0915 0.149946,-0.13722 0.208371,-0.0991 l 0.0305,0.0178 h 0.0305 c 0.0178,0 0.02542,0 0.0432,-0.0204 0.03293,-0.0365 0.06771,-0.0713 0.104198,-0.1042 0.332365,-0.2455 0.784294,-0.25164 1.123211,-0.0152 0.332897,0.20075 1.63399,0.9428 2.886797,-0.18297 2.065992,-1.85507 4.482672,-4.3734 6.299633,-4.45981 -0.492991,-1.06221 -1.349378,-3.28831 -1.445941,-4.10911 l -0.589561,-0.12452 c -0.317647,-0.68359 -1.09017,-3.8423 -1.308711,-6.21578 0,0 -0.254125,-2.55899 0,-3.45857 -0.139772,-0.0152 -0.396428,0.19567 -0.467584,0.19822 -0.332896,-0.81573 0.747114,-7.71 1.816961,-9.71755 l 1.639065,-0.65309 c -0.170247,-0.0204 -1.35445,-0.0737 -4.469965,-0.32781 -1.750889,1.54759 -3.760975,3.20953 -4.779998,4.11166 -0.172797,0.12707 -0.462499,1.11305 -0.462499,1.11305 0,0 -0.508241,0.45233 -0.993607,0.78522 -0.63022,0.44218 -2.172722,0.7827 -2.508161,0.25412 -0.07625,-0.12959 -0.06352,-0.18549 0,-0.25412 0.238871,-0.25411 1.140992,-0.68104 1.445941,-1.25281 -0.492991,0.25412 -1.041888,0.50824 -1.471357,0.46505 -0.188047,0 -0.284615,-0.47013 -0.0432,-0.55399 0.655626,-0.27699 1.174034,-0.39642 1.560294,-0.94024 0.38626,-0.54382 0.823354,-0.87163 1.417991,-0.88434 0,0 2.896964,-3.78384 4.604654,-5.59064 0.472666,-0.49299 1.349375,-0.33035 1.349375,-0.33035 l 0.147397,-0.57431 c 0,0 5.844759,-0.69884 8.579095,0.20329 -0.06352,-1.65432 0.6785,-3.85245 3.267985,-3.85245 1.331585,0 3.290842,1.17658 3.557672,2.60473 0.0813,0.43962 -0.1728,0.73186 -0.30749,1.28839 -0.23125,0.84113 0.0915,1.77883 0,2.07107 -0.0762,0.24142 -0.34814,0.2211 -0.584469,0.5489 -0.206904,0.3232 -0.38627,0.66323 -0.5362,1.01649 l -0.353219,0.79285 -1.824586,-0.13215 c -0.665792,1.44087 -2.032962,4.37595 -2.515785,7.28562 v 0 c 1.433231,0.12198 7.928539,1.06223 7.928539,1.06223 l 0.15755,0.52857 c 0,0 2.73687,0.32781 4.97566,1.39511 0.50824,0.12198 1.75851,-0.0661 2.5844,0.31257 0.0559,-0.033 0.19315,-0.17279 0.25413,-0.21092 2.91984,0.89959 5.33651,2.42939 8.14962,3.11043 0,0 1.31634,0.32019 1.75851,0.4066 0.74606,0.1449 1.50065,0.24167 2.25912,0.28969 0.90213,0.0712 1.40275,0.0585 2.06092,0.0966 0.46757,0.028 1.0368,-0.0508 1.22231,0.63022 m 4.18027,-8.87895 c -1.9887,-0.004 -3.60427,1.60455 -3.60847,3.59326 -0.004,1.98871 1.60454,3.60428 3.59325,3.60849 1.9887,0.004 3.60429,-1.60456 3.60849,-3.59327 0,-0.003 0,-0.005 0,-0.008 -0.003,-1.98772 -1.61569,-3.5972 -3.60342,-3.5958 l 0.0101,-0.005 z"
           class="st0" /></g></g></g><metadata
     id="metadata1"><rdf:RDF><cc:Work
         rdf:about="" /></rdf:RDF></metadata><style
     id="style3"
     type="text/css">
	.st0{fill:#FFFFFF;}
	.st1{fill:#D20515;}
</style></svg>
